HIERARCHY
ROOT Hips
{
  OFFSET 0.000000 0.000000 0.000000
  CHANNELS 6 Xposition Yposition Zposition Zrotation Yrotation Xrotation
  JOINT Spine
  {
    OFFSET -0.000883 2.120903 -0.028059
    CHANNELS 3 Zrotation Yrotation Xrotation
    JOINT Spine1
    {
      OFFSET -0.002865 2.096658 0.129739
      CHANNELS 3 Zrotation Yrotation Xrotation
      JOINT Spine2
      {
        OFFSET -0.000072 2.101496 0.140380
        CHANNELS 3 Zrotation Yrotation Xrotation
        JOINT Neck
        {
          OFFSET 0.073278 1.835262 0.072900
          CHANNELS 3 Zrotation Yrotation Xrotation
          JOINT Head
          {
            OFFSET -0.033980 1.851628 -0.175733
            CHANNELS 3 Zrotation Yrotation Xrotation
            End Site
            {
              OFFSET 0 0 0
            }
          }
        }
        JOINT LeftShoulder
        {
          OFFSET 3.021134 1.180177 0.406022
          CHANNELS 3 Zrotation Yrotation Xrotation
          JOINT LeftArm
          {
            OFFSET 4.585380 -0.000000 -0.000000
            CHANNELS 3 Zrotation Yrotation Xrotation
            JOINT LeftForeArm
            {
              OFFSET 2.689350 -0.000000 -0.000000
              CHANNELS 3 Zrotation Yrotation Xrotation
              JOINT LeftHand
              {
                OFFSET 0.585058 -0.000000 -0.000000
                CHANNELS 3 Zrotation Yrotation Xrotation
                JOINT LeftHandIndex1
                {
                  OFFSET 0.471689 -0.000000 -0.000000
                  CHANNELS 3 Zrotation Yrotation Xrotation
                  End Site
                  {
                    OFFSET 0 0 0
                  }
                }
              }
            }
          }
        }
        JOINT RightShoulder
        {
          OFFSET -2.950738 1.188427 0.314298
          CHANNELS 3 Zrotation Yrotation Xrotation
          JOINT RightArm
          {
            OFFSET -4.474500 -0.000000 -0.000000
            CHANNELS 3 Zrotation Yrotation Xrotation
            JOINT RightForeArm
            {
              OFFSET -2.938960 -0.000000 -0.000000
              CHANNELS 3 Zrotation Yrotation Xrotation
              JOINT RightHand
              {
                OFFSET -0.405092 -0.000000 -0.000000
                CHANNELS 3 Zrotation Yrotation Xrotation
                JOINT RightHandIndex1
                {
                  OFFSET -0.326596 -0.000000 -0.000000
                  CHANNELS 3 Zrotation Yrotation Xrotation
                  End Site
                  {
                    OFFSET 0 0 0
                  }
                }
              }
            }
          }
        }
      }
    }
  }
  JOINT LeftUpLeg
  {
    OFFSET 2.251771 -6.186694 0.000000
    CHANNELS 3 Zrotation Yrotation Xrotation
    JOINT LeftLeg
    {
      OFFSET 2.266012 -6.225823 0.000000
      CHANNELS 3 Zrotation Yrotation Xrotation
      JOINT LeftFoot
      {
        OFFSET 0.237014 -0.651191 2.158476
        CHANNELS 3 Zrotation Yrotation Xrotation
        JOINT LeftToeBase
        {
          OFFSET 0.000000 -0.000000 1.129490
          CHANNELS 3 Zrotation Yrotation Xrotation
          End Site
          {
            OFFSET 0 0 0
          }
        }
      }
    }
  }
  JOINT RightUpLeg
  {
    OFFSET -2.280357 -6.265234 0.000000
    CHANNELS 3 Zrotation Yrotation Xrotation
    JOINT RightLeg
    {
      OFFSET -2.254897 -6.195283 0.000000
      CHANNELS 3 Zrotation Yrotation Xrotation
      JOINT RightFoot
      {
        OFFSET -0.283752 -0.779600 2.231370
        CHANNELS 3 Zrotation Yrotation Xrotation
        JOINT RightToeBase
        {
          OFFSET -0.000000 -0.000000 1.178990
          CHANNELS 3 Zrotation Yrotation Xrotation
          End Site
          {
            OFFSET 0 0 0
          }
        }
      }
    }
  }
}
MOTION
Frames: 8
Frame Time: 0.00833333
2.170500 15.745000 5.796230 0.835795 -7.647710 7.353420 -18.367600 -12.805600 -9.056870 0.000000 0.000000 18.368300 25.429700 0.000000 -15.189200 0.000000 0.000000 3.235600 15.357200 8.322530 -16.659400 0.000000 0.000000 28.133300 -18.504800 0.000000 -15.750100 0.000000 0.000000 -1.662310 -1.683380 -1.922860 -4.324720 0.174992 -2.577700 -7.553160 1.131290 -1.202320 -5.325120 -2.676970 -8.334560 -7.931630 -1.684470 -5.700680 10.623600 0.000000 0.000000 0.000000 69.217200 18.634900 -49.631500 0.000000 0.000000 31.893600 15.441800 0.000000 -5.622110 0.000000 0.000000 7.125020 0.000000 0.000000 0.000000 -69.831900 -16.982600 -39.148700 0.000000 0.000000 23.685600 -5.931660 0.000000 -9.356770 0.000000 0.000000 7.125020
2.170650 15.744400 5.798390 0.844727 -7.672820 7.343690 -18.386900 -12.807900 -9.028160 0.000000 0.000000 18.361300 25.452500 0.000000 -15.225200 0.000000 0.000000 3.246700 15.344200 8.352410 -16.650200 0.000000 0.000000 28.141400 -18.505900 0.000000 -15.741500 0.000000 0.000000 -1.622600 -1.667280 -1.902630 -4.306620 0.154255 -2.551690 -7.535790 1.101080 -1.190950 -5.319190 -2.597420 -8.344580 -7.979340 -1.722210 -5.702400 10.599000 -0.000000 -0.000000 0.000000 69.253100 18.577600 -49.589800 0.000000 0.000000 31.892400 15.465700 0.000000 -5.613670 0.000000 0.000000 7.125020 -0.000000 -0.000000 0.000000 -69.828900 -17.015900 -39.167400 0.000000 0.000000 23.706800 -5.970190 0.000000 -9.370980 0.000000 0.000000 7.125020
2.170560 15.744400 5.801290 0.837966 -7.660370 7.342950 -18.383800 -12.814400 -9.012240 0.000000 0.000000 18.357400 25.451100 0.000000 -15.206000 0.000000 0.000000 3.196240 15.358300 8.296270 -16.630900 0.000000 0.000000 28.141700 -18.465300 0.000000 -15.744400 0.000000 0.000000 -1.679230 -1.640810 -1.913270 -4.313130 0.162587 -2.565850 -7.547510 1.095030 -1.199070 -5.328250 -2.629410 -8.337260 -7.872290 -1.711190 -5.699690 10.544900 -0.000000 -0.000000 0.000000 69.219100 18.618200 -49.652400 0.000000 0.000000 31.887900 15.467700 0.000000 -5.603400 0.000000 0.000000 7.125020 -0.000000 -0.000000 0.000000 -69.799100 -16.985300 -39.210000 0.000000 0.000000 23.699000 -6.006860 0.000000 -9.342880 0.000000 0.000000 7.125020
2.169830 15.744500 5.803750 0.840450 -7.677070 7.348180 -18.387100 -12.786600 -9.004500 0.000000 0.000000 18.351800 25.441500 0.000000 -15.220600 0.000000 0.000000 3.199810 15.357300 8.340920 -16.633500 0.000000 0.000000 28.143500 -18.502000 0.000000 -15.731200 0.000000 0.000000 -1.668220 -1.638220 -1.914890 -4.313880 0.164655 -2.568020 -7.549980 1.095760 -1.200230 -5.330410 -2.650240 -8.332480 -7.898440 -1.711430 -5.696350 10.558200 -0.000000 -0.000000 0.000000 69.223200 18.619200 -49.660500 0.000000 0.000000 31.893900 15.480200 0.000000 -5.617970 0.000000 0.000000 7.125020 -0.000000 -0.000000 0.000000 -69.785000 -16.992400 -39.209000 0.000000 0.000000 23.674000 -5.919330 0.000000 -9.374370 0.000000 0.000000 7.125020
2.169480 15.744500 5.806380 0.842206 -7.684200 7.350500 -18.392000 -12.772200 -8.992050 0.000000 0.000000 18.345700 25.436100 0.000000 -15.226500 0.000000 0.000000 3.189780 15.357500 8.351310 -16.626100 0.000000 0.000000 28.143900 -18.509200 0.000000 -15.727600 0.000000 0.000000 -1.666660 -1.627780 -1.916280 -4.312400 0.164522 -2.570100 -7.554220 1.089980 -1.201770 -5.336120 -2.666290 -8.330180 -7.903900 -1.712720 -5.694910 10.561900 0.000000 0.000000 0.000000 69.220600 18.621000 -49.674800 0.000000 0.000000 31.891900 15.493300 0.000000 -5.621210 0.000000 0.000000 7.125020 0.000000 0.000000 0.000000 -69.764900 -16.999000 -39.225700 0.000000 0.000000 23.659900 -5.883440 0.000000 -9.389040 0.000000 0.000000 7.125020
2.169120 15.744500 5.809120 0.843932 -7.689950 7.355570 -18.396100 -12.761800 -8.980500 0.000000 0.000000 18.335900 25.432600 0.000000 -15.231500 0.000000 0.000000 3.191020 15.357600 8.362780 -16.621200 0.000000 0.000000 28.146100 -18.520200 0.000000 -15.727200 0.000000 0.000000 -1.667760 -1.618680 -1.919340 -4.314090 0.165593 -2.574310 -7.560300 1.086110 -1.204270 -5.341850 -2.699730 -8.326650 -7.926850 -1.708150 -5.693330 10.587300 -0.000000 -0.000000 0.000000 69.215500 18.627400 -49.688600 0.000000 0.000000 31.887100 15.501200 0.000000 -5.627860 0.000000 0.000000 7.125020 -0.000000 -0.000000 0.000000 -69.738700 -17.015900 -39.239400 0.000000 0.000000 23.626200 -5.770130 0.000000 -9.451510 0.000000 0.000000 7.125020
2.168770 15.744500 5.811920 0.848391 -7.695820 7.361880 -18.403100 -12.758600 -8.968520 0.000000 0.000000 18.322700 25.436300 0.000000 -15.236100 0.000000 0.000000 3.196640 15.354400 8.376060 -16.618600 0.000000 0.000000 28.150600 -18.535200 0.000000 -15.727800 0.000000 0.000000 -1.679650 -1.612230 -1.922020 -4.317450 0.164736 -2.578030 -7.565670 1.081640 -1.206460 -5.345850 -2.745760 -8.321720 -7.984210 -1.699490 -5.691110 10.642600 0.000000 0.000000 0.000000 69.211200 18.632200 -49.695700 0.000000 0.000000 31.882700 15.505100 0.000000 -5.634710 0.000000 0.000000 7.125020 0.000000 0.000000 0.000000 -69.711800 -17.044200 -39.248500 0.000000 0.000000 23.593100 -5.672640 0.000000 -9.500290 0.000000 0.000000 7.125020
2.168460 15.744600 5.814780 0.854493 -7.701650 7.370060 -18.411600 -12.762400 -8.956920 0.000000 0.000000 18.306500 25.446700 0.000000 -15.238900 0.000000 0.000000 3.204580 15.349000 8.388580 -16.618600 0.000000 0.000000 28.156900 -18.550200 0.000000 -15.730800 0.000000 0.000000 -1.697690 -1.606040 -1.923360 -4.322960 0.161211 -2.580010 -7.571270 1.074470 -1.207870 -5.349070 -2.803850 -8.313760 -8.081470 -1.687070 -5.687210 10.734400 -0.000000 -0.000000 0.000000 69.206200 18.634000 -49.697700 0.000000 0.000000 31.877400 15.505200 0.000000 -5.640330 0.000000 0.000000 7.125020 -0.000000 -0.000000 0.000000 -69.686100 -17.079400 -39.257700 0.000000 0.000000 23.563800 -5.596160 0.000000 -9.539030 0.000000 0.000000 7.125020
